<?xml version="1.0" standalone="no"?>
<!DOCTYPE svg PUBLIC "-//W3C//DTD SVG 20010904//EN"
 "http://www.w3.org/TR/2001/REC-SVG-20010904/DTD/svg10.dtd">
<svg version="1.0" xmlns="http://www.w3.org/2000/svg"
 width="3000.000000pt" height="3000.000000pt" viewBox="0 0 3000.000000 3000.000000"
 preserveAspectRatio="xMidYMid meet">

<g transform="translate(0.000000,3000.000000) scale(0.100000,-0.100000)"
fill="#000000" stroke="none">
<path d="M12360 14805 l0 -2145 2375 0 2375 0 0 2145 0 2145 -2375 0 -2375 0
0 -2145z m3258 1913 l-3 -203 -1615 0 -1615 0 -3 203 -2 202 1620 0 1620 0 -2
-202z m1470 0 l-3 -203 -727 -3 -728 -2 0 205 0 205 730 0 730 0 -2 -202z
m-1468 -428 l0 -210 -1620 0 -1620 0 0 210 0 210 1620 0 1620 0 0 -210z m1470
0 l0 -210 -730 0 -730 0 0 210 0 210 730 0 730 0 0 -210z m-1470 -430 l0 -210
-1620 0 -1620 0 0 210 0 210 1620 0 1620 0 0 -210z m1470 0 l0 -210 -730 0
-730 0 0 210 0 210 730 0 730 0 0 -210z m-1470 -430 l0 -210 -1620 0 -1620 0
0 210 0 210 1620 0 1620 0 0 -210z m1470 0 l0 -210 -730 0 -730 0 0 210 0 210
730 0 730 0 0 -210z m-1470 -430 l0 -210 -1620 0 -1620 0 0 210 0 210 1620 0
1620 0 0 -210z m1470 0 l0 -210 -730 0 -730 0 0 210 0 210 730 0 730 0 0 -210z
m-1470 -430 l0 -210 -1620 0 -1620 0 0 210 0 210 1620 0 1620 0 0 -210z m1470
0 l0 -210 -730 0 -730 0 0 210 0 210 730 0 730 0 0 -210z m-1470 -430 l0 -210
-1620 0 -1620 0 0 210 0 210 1620 0 1620 0 0 -210z m1470 0 l0 -210 -730 0
-730 0 0 210 0 210 730 0 730 0 0 -210z m-1470 -430 l0 -210 -1620 0 -1620 0
0 210 0 210 1620 0 1620 0 0 -210z m1470 0 l0 -210 -730 0 -730 0 0 210 0 210
730 0 730 0 0 -210z m-1470 -625 l0 -405 -1620 0 -1620 0 0 405 0 405 1620 0
1620 0 0 -405z m1470 0 l0 -405 -730 0 -730 0 0 405 0 405 730 0 730 0 0 -405z"/>
</g>
</svg>
